# xmcd
#
# Track frame offsets: 
#        182
#        17152
#        37827
#        84507
#        107362
#        140757
#        173557
#        211310
#        251945
#        271925
#
# Disc length: 4021 seconds
#
# Revision: 4
# Processed by: cddbd v1.5.2PL0 Copyright (c) Steve Scherf et al.
# Submitted via: ExactAudioCopy v0.95b3
#
DISCID=800fb30a
DTITLE=Albert King - Albert Live
DYEAR=1977
DGENRE=Blues
TTITLE0=Watermelon Man (Live)
TTITLE1=Don't Burn Down The Bridge (Live)
TTITLE2=Blues At Sunrise (Live)
TTITLE3=That's What The Blues Is All About (Live)
TTITLE4=Stormy Monday (Live)
TTITLE5=Kansas City (Live)
TTITLE6=I'm Gonna Call You As Soon As The Sun Goes Down (Live)
TTITLE7=As The Years Go Passing By (Live)
TTITLE8=Overall Junction (Live)
TTITLE9=I'll Play The Blues For You (Live)
EXTD=YEAR: 1977 ID3G: 0
EXTT0=
EXTT1=
EXTT2=
EXTT3=
EXTT4=
EXTT5=
EXTT6=
EXTT7=
EXTT8=
EXTT9=
PLAYORDER=
